<svg xmlns="http://www.w3.org/2000/svg" width="24" height="24" viewBox="0 0 24 24">
  <path d="M1.5,3.5v17a2,2,0,0,0,2,2h17a2,2,0,0,0,2-2V3.5a2,2,0,0,0-2-2H3.5A2,2,0,0,0,1.5,3.5Z" style="fill:none;stroke:#949494;stroke-linecap:round;stroke-linejoin:round"/>
  <path d="M6,2 Q12,8 18,2" style="fill:none;stroke:#009688;stroke-width:1.5;stroke-linecap:round;stroke-linejoin:round"/>
  <path d="M2,6 Q8,12 2,18" style="fill:none;stroke:#009688;stroke-width:1.5;stroke-linecap:round;stroke-linejoin:round"/>
  <path d="M22,6 Q16,12 22,18" style="fill:none;stroke:#009688;stroke-width:1.5;stroke-linecap:round;stroke-linejoin:round"/>
  <path d="M6,22 Q12,16 18,22" style="fill:none;stroke:#009688;stroke-width:1.5;stroke-linecap:round;stroke-linejoin:round"/>
  <circle cx="12" cy="12" r="3" style="fill:none;stroke:#009688;stroke-width:1.5;stroke-linecap:round;stroke-linejoin:round"/>
</svg>
